<?xml version="1.0" encoding="UTF-8" standalone="no"?>
<!-- Created with Inkscape (http://www.inkscape.org/) -->

<svg
   xmlns:dc="http://purl.org/dc/elements/1.1/"
   xmlns:cc="http://creativecommons.org/ns#"
   xmlns:rdf="http://www.w3.org/1999/02/22-rdf-syntax-ns#"
   xmlns:svg="http://www.w3.org/2000/svg"
   xmlns="http://www.w3.org/2000/svg"
   xmlns:sodipodi="http://sodipodi.sourceforge.net/DTD/sodipodi-0.dtd"
   xmlns:inkscape="http://www.inkscape.org/namespaces/inkscape"
   width="84.003059mm"
   height="107.11086mm"
   viewBox="0 0 84.003059 107.11086"
   version="1.1"
   id="svg8"
   inkscape:version="0.92.4 (5da689c313, 2019-01-14)"
   sodipodi:docname="hc3bootleg.svg">
  <defs
     id="defs2" />
  <sodipodi:namedview
     id="base"
     pagecolor="#ffffff"
     bordercolor="#666666"
     borderopacity="1.0"
     inkscape:pageopacity="0.0"
     inkscape:pageshadow="2"
     inkscape:zoom="0.175"
     inkscape:cx="595.15502"
     inkscape:cy="-1055.9245"
     inkscape:document-units="px"
     inkscape:current-layer="text912"
     showgrid="false"
     inkscape:window-width="1920"
     inkscape:window-height="1002"
     inkscape:window-x="0"
     inkscape:window-y="0"
     inkscape:window-maximized="1"
     fit-margin-top="0"
     fit-margin-left="0"
     fit-margin-right="0"
     fit-margin-bottom="0" />
  <metadata
     id="metadata5">
    <rdf:RDF>
      <cc:Work
         rdf:about="">
        <dc:format>image/svg+xml</dc:format>
        <dc:type
           rdf:resource="http://purl.org/dc/dcmitype/StillImage" />
        <dc:title />
      </cc:Work>
    </rdf:RDF>
  </metadata>
  <g
     inkscape:label="Ebene 1"
     inkscape:groupmode="layer"
     id="layer1"
     transform="translate(-67.713254,-138.53718)">
    <g
       id="g845">
      <path
         style="fill:#000000;fill-rule:evenodd;stroke:#ffffff;stroke-width:1.58749998;stroke-linecap:butt;stroke-linejoin:miter;stroke-miterlimit:4;stroke-dasharray:none;stroke-opacity:1"
         d="m 112.92496,213.46726 h 6.66183 c -0.0454,-42.7356 -34.959614,-61.50886 -49.925918,-64.44494 v 4.48847 c 12.798824,2.97653 43.578628,23.44212 43.264088,59.95647 z"
         id="path880"
         inkscape:connector-curvature="0"
         sodipodi:nodetypes="ccccc" />
      <path
         sodipodi:nodetypes="ccccc"
         inkscape:connector-curvature="0"
         id="path878"
         d="m 107.01451,213.46726 h -6.66183 c 0.0454,-42.7356 34.43045,-61.50886 49.39676,-64.44494 v 4.48847 c -12.79883,2.97653 -43.04947,23.44212 -42.73493,59.95647 z"
         style="fill:#000000;fill-rule:evenodd;stroke:#ffffff;stroke-width:1.58749998;stroke-linecap:butt;stroke-linejoin:miter;stroke-miterlimit:4;stroke-dasharray:none;stroke-opacity:1" />
      <path
         sodipodi:nodetypes="cccc"
         inkscape:connector-curvature="0"
         id="path882"
         d="m 100.25818,210.72693 c -0.381577,-11.58704 0.39481,-20.56821 2.69308,-30.85231 l 3.07106,5.19718 c -2.77153,7.13968 -4.99609,12.89785 -5.76414,25.65513 z"
         style="fill:#000000;fill-rule:evenodd;stroke:#ffffff;stroke-width:1.58749998;stroke-linecap:butt;stroke-linejoin:miter;stroke-miterlimit:4;stroke-dasharray:none;stroke-opacity:1" />
      <path
         sodipodi:nodetypes="cccc"
         inkscape:connector-curvature="0"
         id="path884"
         d="m 115.87332,181.29204 c 0.80484,2.60208 1.62241,6.21033 2.55134,18.61532 -1.08758,-5.45922 -2.4992,-10.53721 -4.65383,-14.74107 z"
         style="fill:#000000;fill-rule:evenodd;stroke:#ffffff;stroke-width:1.58749998;stroke-linecap:butt;stroke-linejoin:miter;stroke-miterlimit:4;stroke-dasharray:none;stroke-opacity:1" />
      <path
         sodipodi:nodetypes="cccccc"
         inkscape:connector-curvature="0"
         id="path886"
         d="m 109.81437,177.99824 -0.73499,-1.36976 -0.66818,-11.86008 c 7.65821,-14.14365 16.85005,-20.31249 26.26644,-25.3136 l 15.0718,9.56752 c -5.44818,1.41764 -23.96444,5.95585 -39.93507,28.97592 z"
         style="fill:#000000;fill-rule:evenodd;stroke:#ffffff;stroke-width:1.58749998;stroke-linecap:butt;stroke-linejoin:miter;stroke-miterlimit:4;stroke-dasharray:none;stroke-opacity:1" />
      <path
         sodipodi:nodetypes="cccccc"
         inkscape:connector-curvature="0"
         id="path888"
         d="m 109.07938,176.62848 -0.66818,-11.86008 0.90204,-1.80407 C 101.1702,148.18039 89.82961,142.69063 82.853553,140.04597 l -13.192683,8.97635 c 18.226959,4.2068 30.94896,15.71398 39.41851,27.60616 z"
         style="fill:#000000;fill-rule:evenodd;stroke:#ffffff;stroke-width:1.58749998;stroke-linecap:butt;stroke-linejoin:miter;stroke-miterlimit:4;stroke-dasharray:none;stroke-opacity:1" />
    </g>
    <g
       id="g831"
       transform="translate(1.8304352)">
      <path
         sodipodi:nodetypes="ccccc"
         inkscape:connector-curvature="0"
         id="path904"
         d="m 86.131322,214.74293 0.472471,27.11979 c 14.567087,4.2551 28.651677,4.35051 42.994787,0.23623 l 0.0472,-27.26153 z"
         style="fill:#000000;fill-rule:evenodd;stroke:#ffffff;stroke-width:1.0583334;stroke-linecap:butt;stroke-linejoin:miter;stroke-miterlimit:4;stroke-dasharray:none;stroke-opacity:1" />
      <ellipse
         style="opacity:1;fill:#000000;fill-opacity:1;fill-rule:nonzero;stroke:#ffffff;stroke-width:2.11666656;stroke-linecap:round;stroke-linejoin:miter;stroke-miterlimit:4;stroke-dasharray:none;stroke-dashoffset:0;stroke-opacity:1;paint-order:markers stroke fill"
         id="ellipse902"
         cx="107.91103"
         cy="214.31181"
         rx="21.113914"
         ry="1.2402198" />
      <g
         aria-label="3"
         style="font-style:normal;font-variant:normal;font-weight:900;font-stretch:normal;font-size:29.47448158px;line-height:125%;font-family:Rawline;-inkscape-font-specification:'Rawline Heavy';text-align:end;letter-spacing:0px;word-spacing:0px;writing-mode:lr-tb;text-anchor:end;fill:#ffffff;fill-opacity:1;stroke:none;stroke-width:1.68425596px;stroke-linecap:butt;stroke-linejoin:miter;stroke-opacity:1"
         id="text912">
        <path
           d="m 107.75294,240.9149 c -2.94553,0 -5.38768,-0.5826 -7.16714,-2.36026 -1.148306,-1.14715 -1.635004,-3.25873 -1.527785,-4.62351 l 4.391765,0.0358 c 1.49351,2.07622 2.43702,1.82444 4.00093,1.82444 0.99783,0 1.72702,-0.15351 2.18756,-0.46054 0.47013,-0.30703 0.7052,-0.79155 0.7052,-1.45358 0,-0.73878 -0.29743,-1.27128 -0.8923,-1.59749 -0.59486,-0.33581 -1.55431,-0.50372 -2.87836,-0.50372 h -0.92108 v -3.88579 h 1.03621 c 0.94027,0 1.69344,-0.1823 2.25952,-0.54689 0.57567,-0.37419 0.86351,-0.86831 0.86351,-1.48236 0,-0.47973 -0.1679,-0.84912 -0.50371,-1.10817 -0.33581,-0.26865 -0.80595,-0.40297 -1.4104,-0.40297 -1.4104,0 -2.74798,-0.0108 -3.51161,2.07242 l -4.846252,0.0326 c 0.04393,-1.65817 0.403351,-3.03971 1.305862,-4.1918 0.76054,-0.97085 1.74621,-1.42479 3.1662,-1.91412 1.42959,-0.48932 2.94073,-0.73398 4.53343,-0.73398 2.18756,0 3.94816,0.47493 5.2818,1.42479 1.33365,0.94986 2.00047,2.20195 2.00047,3.75627 0,1.17054 -0.36459,2.21155 -1.09378,3.12303 -0.71959,0.91149 -1.62628,1.47277 -2.72006,1.68385 1.20891,0.21108 2.19715,0.81074 2.96472,1.79898 0.77716,0.97864 1.16574,2.14438 1.16574,3.49721 0,1.86135 -0.75317,3.32931 -2.25952,4.4039 -1.49675,1.07459 -3.54039,1.61189 -6.13092,1.61189 z"
           style="font-style:normal;font-variant:normal;font-weight:900;font-stretch:normal;font-family:Rawline;-inkscape-font-specification:'Rawline Heavy';fill:#ffffff;stroke-width:1.68425596px"
           id="path824"
           inkscape:connector-curvature="0"
           sodipodi:nodetypes="saccscscsccscscsccacscscccscs" />
      </g>
    </g>
  </g>
</svg>
