<?xml version="1.0" encoding="UTF-8" standalone="no"?>
<!-- Created with Inkscape (http://www.inkscape.org/) -->

<svg
   width="210mm"
   height="297mm"
   viewBox="0 0 210 297"
   version="1.1"
   id="svg8"
   inkscape:version="1.1.2 (0a00cf5339, 2022-02-04)"
   sodipodi:docname="nac4bootleg.svg"
   xmlns:inkscape="http://www.inkscape.org/namespaces/inkscape"
   xmlns:sodipodi="http://sodipodi.sourceforge.net/DTD/sodipodi-0.dtd"
   xmlns="http://www.w3.org/2000/svg"
   xmlns:svg="http://www.w3.org/2000/svg"
   xmlns:rdf="http://www.w3.org/1999/02/22-rdf-syntax-ns#"
   xmlns:cc="http://creativecommons.org/ns#"
   xmlns:dc="http://purl.org/dc/elements/1.1/">
  <defs
     id="defs2">
    <inkscape:path-effect
       effect="bspline"
       id="path-effect5154"
       is_visible="true"
       lpeversion="1"
       weight="33.333333"
       steps="2"
       helper_size="0"
       apply_no_weight="true"
       apply_with_weight="true"
       only_selected="false" />
  </defs>
  <sodipodi:namedview
     id="base"
     pagecolor="#ffffff"
     bordercolor="#666666"
     borderopacity="1.0"
     inkscape:pageopacity="0.0"
     inkscape:pageshadow="2"
     inkscape:zoom="0.98994949"
     inkscape:cx="428.30468"
     inkscape:cy="545.98745"
     inkscape:document-units="px"
     inkscape:current-layer="layer1"
     inkscape:pagecheckerboard="0"
     showgrid="false"
     inkscape:window-width="1920"
     inkscape:window-height="1002"
     inkscape:window-x="0"
     inkscape:window-y="0"
     inkscape:window-maximized="1" />
  <metadata
     id="metadata5">
    <rdf:RDF>
      <cc:Work
         rdf:about="">
        <dc:format>image/svg+xml</dc:format>
        <dc:type
           rdf:resource="http://purl.org/dc/dcmitype/StillImage" />
      </cc:Work>
    </rdf:RDF>
  </metadata>
  <g
     inkscape:label="Ebene 1"
     inkscape:groupmode="layer"
     id="layer1">
    <g
       id="g13004"
       inkscape:export-filename="/home/zemanek/git/naclabel/nac4bootleg.png"
       inkscape:export-xdpi="85.977325"
       inkscape:export-ydpi="85.977325">
      <text
         xml:space="preserve"
         style="font-style:normal;font-variant:normal;font-weight:normal;font-stretch:normal;font-size:29.3685px;line-height:125%;font-family:Roboto;-inkscape-font-specification:Roboto;text-align:start;letter-spacing:0px;word-spacing:0px;writing-mode:lr-tb;text-anchor:start;fill:#000000;fill-opacity:1;stroke:#000000;stroke-width:0.970268;stroke-linecap:butt;stroke-linejoin:miter;stroke-miterlimit:4;stroke-dasharray:none;stroke-opacity:1"
         x="74.803062"
         y="137.50319"
         id="text1653"><tspan
           sodipodi:role="line"
           id="tspan1651"
           style="font-style:normal;font-variant:normal;font-weight:bold;font-stretch:normal;font-family:'Libre Baskerville';-inkscape-font-specification:'Libre Baskerville Bold';stroke:#000000;stroke-width:0.970268;stroke-miterlimit:4;stroke-dasharray:none"
           x="74.803062"
           y="137.50319">NAC</tspan></text>
      <text
         xml:space="preserve"
         style="font-style:normal;font-variant:normal;font-weight:normal;font-stretch:normal;font-size:29.3685px;line-height:125%;font-family:Roboto;-inkscape-font-specification:Roboto;text-align:start;letter-spacing:1.94054px;word-spacing:0px;writing-mode:lr-tb;text-anchor:start;fill:#000000;fill-opacity:1;stroke:#000000;stroke-width:0.970268;stroke-linecap:butt;stroke-linejoin:miter;stroke-miterlimit:4;stroke-dasharray:none;stroke-opacity:1"
         x="94.208458"
         y="164.28267"
         id="text3937"><tspan
           sodipodi:role="line"
           id="tspan3935"
           style="font-style:normal;font-variant:normal;font-weight:bold;font-stretch:normal;font-family:'Libre Baskerville';-inkscape-font-specification:'Libre Baskerville Bold';stroke:#000000;stroke-width:0.970268;stroke-miterlimit:4;stroke-dasharray:none"
           x="94.208458"
           y="164.28267"
           dx="0">IV</tspan></text>
      <path
         style="fill:none;fill-rule:evenodd;stroke:#000000;stroke-width:7.7621;stroke-linecap:butt;stroke-linejoin:miter;stroke-miterlimit:4;stroke-dasharray:none;stroke-opacity:1"
         d="m 61.462309,110.32366 c 0.02618,-1.35788 -0.850102,-2.55512 -1.338214,-3.82145 0.271924,-3.21385 1.019798,-6.17485 2.956138,-8.504456 16.042218,-5.799399 26.284832,-12.975437 34.473305,-20.639063 5.076902,7.180495 11.426622,-2.833864 15.013112,-5.456378 3.58649,2.622514 9.93622,12.636873 15.01312,5.456378 8.18848,7.663626 18.4311,14.839664 34.47332,20.639063 1.93634,2.329606 2.68421,5.290606 2.95615,8.504456 -0.48812,1.26633 -1.3644,2.46357 -1.33822,3.82145 -9.74836,48.81014 -27.87314,79.26424 -51.10437,99.3532 C 89.335434,189.5879 71.210656,159.1338 61.462309,110.32366 Z"
         id="path5999"
         sodipodi:nodetypes="ccccccccccc" />
      <path
         style="fill:#000000;fill-rule:evenodd;stroke:#000000;stroke-width:0.0970268px;stroke-linecap:butt;stroke-linejoin:miter;stroke-opacity:1"
         d="m 82.889786,182.01498 -2.560817,1.7694 0.558313,1.13266 -3.647315,3.54838 -0.134146,-0.55958 -0.770233,0.53045 0.002,0.71355 -6.340984,6.95415 -3.879684,7.2607 0.15556,0.30856 2.5181,-1.17971 4.277594,-2.49654 c 1.557643,-3.06987 3.459737,-5.36015 5.498359,-7.34143 l 0.599393,0.59333 0.2999,0.0679 0.802714,1.0461 -0.19344,0.70227 0.100715,0.75911 0.39137,0.25858 0.922574,0.0114 0.521887,-0.56306 0.276058,-1.02349 0.04847,-0.43742 -1.405297,-1.16216 -0.276844,-0.0828 -0.994952,-1.10547 3.959603,-3.03705 1.018291,0.26147 0.844244,0.21824 1.475076,-0.28317 0.256861,-0.42751 0.06791,-0.71568 0.814093,-0.74335 -5.385329,-8.03491 -0.414514,0.85883 -0.04023,1.22966 z"
         id="path6979"
         sodipodi:nodetypes="ccccccccccccccccccccccccccccccccccccc" />
      <path
         style="fill:#000000;fill-rule:evenodd;stroke:#000000;stroke-width:0.0970268px;stroke-linecap:butt;stroke-linejoin:miter;stroke-opacity:1"
         d="m 140.74757,181.40255 3.11188,2.36406 -0.32938,0.62823 0.23499,0.55673 3.15864,3.5221 1.07983,-1.10491 0.19405,-0.90566 0.42927,-0.62599 1.02777,0.0586 0.74387,0.77502 0.2734,0.75359 -0.1386,0.61695 -0.45448,0.24827 -0.46762,-0.006 -0.57685,-0.36843 -0.49897,0.28984 -0.59781,0.50059 6.12778,6.24983 4.67103,7.34599 -0.28556,0.45804 -0.68232,0.0125 -5.43369,-2.69286 -0.69974,-0.70538 c -1.54468,-2.78446 -3.31703,-5.39315 -5.85509,-7.41073 l -1.70755,1.60909 0.11088,1.04813 -0.33017,0.38405 -0.65878,0.11628 -0.92079,-0.37966 -0.38102,-0.56566 0.10458,-0.85927 0.66757,-0.40597 0.65767,0.097 0.33026,0.35271 1.03797,-1.75153 -3.90853,-3.06423 -0.872,0.5519 -1.12128,0.38886 -1.98454,-0.93674 -0.0988,-1.66377 z"
         id="path7090"
         sodipodi:nodetypes="ccccccccccccccccccccccccccccccccccccccccc" />
      <path
         style="fill:#000000;fill-rule:evenodd;stroke:#000000;stroke-width:0.0970268px;stroke-linecap:butt;stroke-linejoin:miter;stroke-opacity:1"
         d="m 59.351999,94.547977 -1.304605,-0.02847 -0.450767,0.327909 -0.109605,0.901318 -0.302433,0.311316 -0.613543,-0.350224 -0.55627,-0.263068 -0.04778,-0.524724 0.459171,-0.30457 0.53739,-0.29316 -0.166333,-1.513029 -0.471294,-0.641263 -4.539666,-3.429877 -3.592031,-11.744163 -0.178863,-0.686845 0.384879,0.09141 1.061635,0.742668 8.7101,5.255512 0.131679,0.940522 -0.138609,1.028774 1.693918,2.51704 0.855072,-0.278369 0.856607,-0.0816 0.39668,0.432774 0.274897,1.152075 -0.43254,0.460894 0.590179,0.865972 c 0,0 0.551418,0.682679 0.572209,0.751047 0.02079,0.06837 0.781904,0.241631 0.781904,0.241631 l 0.415162,0.524101 -0.05483,0.588383 0.602134,0.94616 1.154331,2.205898 -4.696402,1.881809 -1.161729,-1.89057 z"
         id="path7277"
         sodipodi:nodetypes="cccccccccccccccccccccccccccscccccccc" />
      <path
         style="fill:#000000;fill-rule:evenodd;stroke:#000000;stroke-width:0.0970268px;stroke-linecap:butt;stroke-linejoin:miter;stroke-opacity:1"
         d="m 160.81105,92.513186 1.16204,-0.875821 0.17523,-0.897762 0.41072,-0.377001 0.46551,0.09706 0.82998,-0.881114 0.0383,-0.335306 -0.42447,-0.342572 0.4493,-0.41961 -0.72145,-0.509614 -0.30542,-0.247167 0.18589,-0.542547 0.30035,-0.449497 c 0,0 0.49948,-0.742505 0.63406,-0.655688 0.13457,0.08682 0.81085,0.567077 0.81085,0.567077 l 0.72591,0.325227 2.08045,-2.223577 0.55216,-1.905561 8.45648,-5.604492 0.51414,0.264215 -0.182,0.92408 -2.74599,9.976912 c -1.73507,1.687625 -4.71724,2.255016 -4.56138,5.641219 l 0.86353,0.52697 -0.76558,0.748066 -0.75006,0.143796 -0.35852,-0.135163 0.0277,-0.730343 -0.60674,-0.580529 -1.06666,-0.433156 -0.76684,0.415443 -1.05285,0.982894 -1.46684,2.235149 -3.52539,-2.38109 1.31847,-1.461537 z"
         id="path7345"
         sodipodi:nodetypes="cccccccccccccscccccccccccccccccccccc" />
    </g>
  </g>
</svg>
